<svg id="visual" viewBox="0 0 1920 1080" width="1920" height="1080" xmlns="http://www.w3.org/2000/svg" xmlns:xlink="http://www.w3.org/1999/xlink" version="1.1"><path d="M0 44L26.7 54.8C53.3 65.7 106.7 87.3 160 96.3C213.3 105.3 266.7 101.7 320 92.7C373.3 83.7 426.7 69.3 480 60.3C533.3 51.3 586.7 47.7 640 53C693.3 58.3 746.7 72.7 800 78.2C853.3 83.7 906.7 80.3 960 82.2C1013.3 84 1066.7 91 1120 85.5C1173.3 80 1226.7 62 1280 53C1333.3 44 1386.7 44 1440 53C1493.3 62 1546.7 80 1600 92.7C1653.3 105.3 1706.7 112.7 1760 109.2C1813.3 105.7 1866.7 91.3 1893.3 84.2L1920 77L1920 0L1893.3 0C1866.7 0 1813.3 0 1760 0C1706.7 0 1653.3 0 1600 0C1546.7 0 1493.3 0 1440 0C1386.7 0 1333.3 0 1280 0C1226.7 0 1173.3 0 1120 0C1066.7 0 1013.3 0 960 0C906.7 0 853.3 0 800 0C746.7 0 693.3 0 640 0C586.7 0 533.3 0 480 0C426.7 0 373.3 0 320 0C266.7 0 213.3 0 160 0C106.7 0 53.3 0 26.7 0L0 0Z" fill="#769cff"></path><path d="M0 98L26.7 112.5C53.3 127 106.7 156 160 166.8C213.3 177.7 266.7 170.3 320 164.8C373.3 159.3 426.7 155.7 480 148.5C533.3 141.3 586.7 130.7 640 134.3C693.3 138 746.7 156 800 163.2C853.3 170.3 906.7 166.7 960 163C1013.3 159.3 1066.7 155.7 1120 143C1173.3 130.3 1226.7 108.7 1280 99.7C1333.3 90.7 1386.7 94.3 1440 107C1493.3 119.7 1546.7 141.3 1600 152.2C1653.3 163 1706.7 163 1760 163C1813.3 163 1866.7 163 1893.3 163L1920 163L1920 75L1893.3 82.2C1866.7 89.3 1813.3 103.7 1760 107.2C1706.7 110.7 1653.3 103.3 1600 90.7C1546.7 78 1493.3 60 1440 51C1386.7 42 1333.3 42 1280 51C1226.7 60 1173.3 78 1120 83.5C1066.7 89 1013.3 82 960 80.2C906.7 78.3 853.3 81.7 800 76.2C746.7 70.7 693.3 56.3 640 51C586.7 45.7 533.3 49.3 480 58.3C426.7 67.3 373.3 81.7 320 90.7C266.7 99.7 213.3 103.3 160 94.3C106.7 85.3 53.3 63.7 26.7 52.8L0 42Z" fill="#6691ff"></path><path d="M0 239L26.7 240.7C53.3 242.3 106.7 245.7 160 242C213.3 238.3 266.7 227.7 320 231.3C373.3 235 426.7 253 480 258.3C533.3 263.7 586.7 256.3 640 260C693.3 263.7 746.7 278.3 800 274.8C853.3 271.3 906.7 249.7 960 249.7C1013.3 249.7 1066.7 271.3 1120 264.2C1173.3 257 1226.7 221 1280 212C1333.3 203 1386.7 221 1440 233.5C1493.3 246 1546.7 253 1600 262C1653.3 271 1706.7 282 1760 287.5C1813.3 293 1866.7 293 1893.3 293L1920 293L1920 161L1893.3 161C1866.7 161 1813.3 161 1760 161C1706.7 161 1653.3 161 1600 150.2C1546.7 139.3 1493.3 117.7 1440 105C1386.7 92.3 1333.3 88.7 1280 97.7C1226.7 106.7 1173.3 128.3 1120 141C1066.7 153.7 1013.3 157.3 960 161C906.7 164.7 853.3 168.3 800 161.2C746.7 154 693.3 136 640 132.3C586.7 128.7 533.3 139.3 480 146.5C426.7 153.7 373.3 157.3 320 162.8C266.7 168.3 213.3 175.7 160 164.8C106.7 154 53.3 125 26.7 110.5L0 96Z" fill="#5685ff"></path><path d="M0 476L26.7 490.5C53.3 505 106.7 534 160 537.7C213.3 541.3 266.7 519.7 320 498C373.3 476.3 426.7 454.7 480 436.7C533.3 418.7 586.7 404.3 640 418.7C693.3 433 746.7 476 800 494C853.3 512 906.7 505 960 503.3C1013.3 501.7 1066.7 505.3 1120 485.5C1173.3 465.7 1226.7 422.3 1280 420.5C1333.3 418.7 1386.7 458.3 1440 496.2C1493.3 534 1546.7 570 1600 555.5C1653.3 541 1706.7 476 1760 463.3C1813.3 450.7 1866.7 490.3 1893.3 510.2L1920 530L1920 291L1893.3 291C1866.7 291 1813.3 291 1760 285.5C1706.7 280 1653.3 269 1600 260C1546.7 251 1493.3 244 1440 231.5C1386.7 219 1333.3 201 1280 210C1226.7 219 1173.3 255 1120 262.2C1066.7 269.3 1013.3 247.7 960 247.7C906.7 247.7 853.3 269.3 800 272.8C746.7 276.3 693.3 261.7 640 258C586.7 254.3 533.3 261.7 480 256.3C426.7 251 373.3 233 320 229.3C266.7 225.7 213.3 236.3 160 240C106.7 243.7 53.3 240.3 26.7 238.7L0 237Z" fill="#447afe"></path><path d="M0 519L26.7 537C53.3 555 106.7 591 160 592.8C213.3 594.7 266.7 562.3 320 537.2C373.3 512 426.7 494 480 483.2C533.3 472.3 586.7 468.7 640 488.5C693.3 508.3 746.7 551.7 800 564.3C853.3 577 906.7 559 960 559C1013.3 559 1066.7 577 1120 562.7C1173.3 548.3 1226.7 501.7 1280 492.7C1333.3 483.7 1386.7 512.3 1440 544.7C1493.3 577 1546.7 613 1600 604C1653.3 595 1706.7 541 1760 530.2C1813.3 519.3 1866.7 551.7 1893.3 567.8L1920 584L1920 528L1893.3 508.2C1866.7 488.3 1813.3 448.7 1760 461.3C1706.7 474 1653.3 539 1600 553.5C1546.7 568 1493.3 532 1440 494.2C1386.7 456.3 1333.3 416.7 1280 418.5C1226.7 420.3 1173.3 463.7 1120 483.5C1066.7 503.3 1013.3 499.7 960 501.3C906.7 503 853.3 510 800 492C746.7 474 693.3 431 640 416.7C586.7 402.3 533.3 416.7 480 434.7C426.7 452.7 373.3 474.3 320 496C266.7 517.7 213.3 539.3 160 535.7C106.7 532 53.3 503 26.7 488.5L0 474Z" fill="#2f6efd"></path><path d="M0 563L26.7 581C53.3 599 106.7 635 160 647.5C213.3 660 266.7 649 320 625.5C373.3 602 426.7 566 480 553.5C533.3 541 586.7 552 640 570C693.3 588 746.7 613 800 620.2C853.3 627.3 906.7 616.7 960 622.2C1013.3 627.7 1066.7 649.3 1120 638.5C1173.3 627.7 1226.7 584.3 1280 573.5C1333.3 562.7 1386.7 584.3 1440 613.2C1493.3 642 1546.7 678 1600 672.5C1653.3 667 1706.7 620 1760 605.5C1813.3 591 1866.7 609 1893.3 618L1920 627L1920 582L1893.3 565.8C1866.7 549.7 1813.3 517.3 1760 528.2C1706.7 539 1653.3 593 1600 602C1546.7 611 1493.3 575 1440 542.7C1386.7 510.3 1333.3 481.7 1280 490.7C1226.7 499.7 1173.3 546.3 1120 560.7C1066.7 575 1013.3 557 960 557C906.7 557 853.3 575 800 562.3C746.7 549.7 693.3 506.3 640 486.5C586.7 466.7 533.3 470.3 480 481.2C426.7 492 373.3 510 320 535.2C266.7 560.3 213.3 592.7 160 590.8C106.7 589 53.3 553 26.7 535L0 517Z" fill="#2b66ed"></path><path d="M0 789L26.7 798C53.3 807 106.7 825 160 832.3C213.3 839.7 266.7 836.3 320 800.3C373.3 764.3 426.7 695.7 480 686.7C533.3 677.7 586.7 728.3 640 764.3C693.3 800.3 746.7 821.7 800 814.3C853.3 807 906.7 771 960 756.7C1013.3 742.3 1066.7 749.7 1120 740.7C1173.3 731.7 1226.7 706.3 1280 715.3C1333.3 724.3 1386.7 767.7 1440 785.7C1493.3 803.7 1546.7 796.3 1600 783.7C1653.3 771 1706.7 753 1760 751.3C1813.3 749.7 1866.7 764.3 1893.3 771.7L1920 779L1920 625L1893.3 616C1866.7 607 1813.3 589 1760 603.5C1706.7 618 1653.3 665 1600 670.5C1546.7 676 1493.3 640 1440 611.2C1386.7 582.3 1333.3 560.7 1280 571.5C1226.7 582.3 1173.3 625.7 1120 636.5C1066.7 647.3 1013.3 625.7 960 620.2C906.7 614.7 853.3 625.3 800 618.2C746.7 611 693.3 586 640 568C586.7 550 533.3 539 480 551.5C426.7 564 373.3 600 320 623.5C266.7 647 213.3 658 160 645.5C106.7 633 53.3 597 26.7 579L0 561Z" fill="#285edd"></path><path d="M0 865L26.7 872.2C53.3 879.3 106.7 893.7 160 908C213.3 922.3 266.7 936.7 320 907.8C373.3 879 426.7 807 480 785.5C533.3 764 586.7 793 640 825.5C693.3 858 746.7 894 800 886.8C853.3 879.7 906.7 829.3 960 820.3C1013.3 811.3 1066.7 843.7 1120 841.8C1173.3 840 1226.7 804 1280 818.3C1333.3 832.7 1386.7 897.3 1440 918.8C1493.3 940.3 1546.7 918.7 1600 895.3C1653.3 872 1706.7 847 1760 841.7C1813.3 836.3 1866.7 850.7 1893.3 857.8L1920 865L1920 777L1893.3 769.7C1866.7 762.3 1813.3 747.7 1760 749.3C1706.7 751 1653.3 769 1600 781.7C1546.7 794.3 1493.3 801.7 1440 783.7C1386.7 765.7 1333.3 722.3 1280 713.3C1226.7 704.3 1173.3 729.7 1120 738.7C1066.7 747.7 1013.3 740.3 960 754.7C906.7 769 853.3 805 800 812.3C746.7 819.7 693.3 798.3 640 762.3C586.7 726.3 533.3 675.7 480 684.7C426.7 693.7 373.3 762.3 320 798.3C266.7 834.3 213.3 837.7 160 830.3C106.7 823 53.3 805 26.7 796L0 787Z" fill="#2457cd"></path><path d="M0 1081L26.7 1081C53.3 1081 106.7 1081 160 1081C213.3 1081 266.7 1081 320 1081C373.3 1081 426.7 1081 480 1081C533.3 1081 586.7 1081 640 1081C693.3 1081 746.7 1081 800 1081C853.3 1081 906.7 1081 960 1081C1013.3 1081 1066.7 1081 1120 1081C1173.3 1081 1226.7 1081 1280 1081C1333.3 1081 1386.7 1081 1440 1081C1493.3 1081 1546.7 1081 1600 1081C1653.3 1081 1706.7 1081 1760 1081C1813.3 1081 1866.7 1081 1893.3 1081L1920 1081L1920 863L1893.3 855.8C1866.7 848.7 1813.3 834.3 1760 839.7C1706.7 845 1653.3 870 1600 893.3C1546.7 916.7 1493.3 938.3 1440 916.8C1386.7 895.3 1333.3 830.7 1280 816.3C1226.7 802 1173.3 838 1120 839.8C1066.7 841.7 1013.3 809.3 960 818.3C906.7 827.3 853.3 877.7 800 884.8C746.7 892 693.3 856 640 823.5C586.7 791 533.3 762 480 783.5C426.7 805 373.3 877 320 905.8C266.7 934.7 213.3 920.3 160 906C106.7 891.7 53.3 877.3 26.7 870.2L0 863Z" fill="#204fbd"></path></svg>